<svg width="256" height="256" viewBox="0 0 256 256" fill="none" xmlns="http://www.w3.org/2000/svg">
<rect width="256" height="256" fill="white"/>
<path d="M35.9734 216.539C33.6538 216.539 31.7803 217.54 30.3529 219.542C28.9509 221.544 28.25 224.284 28.25 227.763C28.25 231.241 28.9637 233.969 30.3911 235.946C31.8186 237.923 33.6028 238.911 35.744 238.911C37.9106 238.911 39.4145 238.373 40.2557 237.297C41.1224 236.196 41.5557 234.595 41.5557 232.492V230.991C41.5557 230.691 41.3773 230.541 41.0204 230.541H38.4587V229.865H46.2586V230.541H45.2262C44.8694 230.541 44.691 230.691 44.691 230.991V232.342C44.691 234.57 43.8753 236.409 42.2439 237.86C40.6126 239.287 38.5224 240 35.9734 240C32.7617 240 30.1235 238.911 28.0588 236.734C26.0196 234.557 25 231.567 25 227.763C25 223.934 26.0069 220.931 28.0206 218.754C30.0597 216.552 32.7107 215.45 35.9734 215.45C37.6303 215.45 39.2871 215.863 40.9439 216.689C41.4792 216.964 41.8616 217.102 42.091 217.102C42.4733 217.102 42.6773 216.839 42.7027 216.314L42.741 215.676H43.4674V222.17H42.7792C42.5498 220.243 41.8106 218.829 40.5616 217.928C39.3381 217.002 37.8087 216.539 35.9734 216.539Z" fill="#17181A"/>
<path d="M57.531 222.883C58.5251 222.883 59.328 223.296 59.9398 224.122C60.577 224.947 60.8957 225.986 60.8957 227.237C60.8957 228.488 60.3731 229.114 59.328 229.114C58.7163 229.114 58.2192 228.926 57.8369 228.551C58.1682 227.825 58.3339 227.087 58.3339 226.336C58.3339 225.01 57.7732 224.347 56.6516 224.347C55.7085 224.347 54.8673 225.123 54.1281 226.674C53.4144 228.201 53.0575 230.428 53.0575 233.356V238.348C53.0575 238.699 53.2359 238.874 53.5928 238.874H56.1545V239.55H47.9723V238.874H49.7693C50.1262 238.874 50.3046 238.699 50.3046 238.348V224.535C50.3046 224.184 50.1262 224.009 49.7693 224.009H47.9723V223.333H49.8458C51.3752 223.333 52.4458 223.258 53.0575 223.108V227.913C53.4654 226.186 54.0644 224.922 54.8546 224.122C55.6447 223.296 56.5369 222.883 57.531 222.883Z" fill="#17181A"/>
<path d="M65.1281 238.348V224.535C65.1281 224.184 64.9497 224.009 64.5928 224.009H62.7958V223.333H64.6693C66.1987 223.333 67.2692 223.258 67.881 223.108V238.423C67.881 238.724 68.0594 238.874 68.4163 238.874H70.2133V239.55H62.7958V238.874H64.5928C64.9497 238.874 65.1281 238.699 65.1281 238.348ZM65.2046 219.204C64.8732 218.854 64.7075 218.428 64.7075 217.928C64.7075 217.427 64.8732 217.015 65.2046 216.689C65.5614 216.339 65.9947 216.164 66.5045 216.164C67.0143 216.164 67.4349 216.339 67.7663 216.689C68.1232 217.015 68.3016 217.427 68.3016 217.928C68.3016 218.428 68.1232 218.854 67.7663 219.204C67.4349 219.53 67.0143 219.692 66.5045 219.692C65.9947 219.692 65.5614 219.53 65.2046 219.204Z" fill="#17181A"/>
<path d="M74.8227 238.348V216.426C74.8227 216.076 74.6443 215.901 74.2874 215.901H72.4904V215.225H74.3639C75.8933 215.225 76.9639 215.15 77.5756 215V238.348C77.5756 238.699 77.7541 238.874 78.1109 238.874H79.908V239.55H72.4904V238.874H74.2874C74.6443 238.874 74.8227 238.699 74.8227 238.348Z" fill="#17181A"/>
<path d="M84.5308 238.348V216.426C84.5308 216.076 84.3524 215.901 83.9955 215.901H82.1985V215.225H84.072C85.6014 215.225 86.6719 215.15 87.2837 215V238.348C87.2837 238.699 87.4621 238.874 87.819 238.874H89.616V239.55H82.1985V238.874H83.9955C84.3524 238.874 84.5308 238.699 84.5308 238.348Z" fill="#17181A"/>
<path d="M91.9065 231.629V230.128H101.542V231.629H91.9065Z" fill="#17181A"/>
<path d="M107.029 236.734C105.016 234.557 104.009 231.554 104.009 227.725C104.009 223.896 105.016 220.893 107.029 218.716C109.069 216.539 111.707 215.45 114.944 215.45C118.207 215.45 120.845 216.539 122.859 218.716C124.898 220.893 125.917 223.896 125.917 227.725C125.917 231.554 124.898 234.557 122.859 236.734C120.845 238.911 118.207 240 114.944 240C111.707 240 109.069 238.911 107.029 236.734ZM109.438 219.467C107.985 221.494 107.259 224.247 107.259 227.725C107.259 231.204 107.985 233.956 109.438 235.983C110.917 238.011 112.752 239.024 114.944 239.024C117.136 239.024 118.971 238.011 120.45 235.983C121.928 233.956 122.667 231.204 122.667 227.725C122.667 224.247 121.928 221.494 120.45 219.467C118.971 217.44 117.136 216.426 114.944 216.426C112.752 216.426 110.917 217.44 109.438 219.467Z" fill="#17181A"/>
<path d="M128.386 231.629V230.128H138.022V231.629H128.386Z" fill="#17181A"/>
<path d="M140.489 216.577V215.901H149.818C151.985 215.901 153.807 216.552 155.286 217.853C156.79 219.129 157.541 220.856 157.541 223.033C157.541 225.21 156.79 226.949 155.286 228.251C153.807 229.527 151.985 230.165 149.818 230.165H145.956V238.348C145.956 238.699 146.135 238.874 146.492 238.874H149.053V239.55H140.489V238.874H142.286C142.643 238.874 142.821 238.699 142.821 238.348V217.027C142.821 216.727 142.643 216.577 142.286 216.577H140.489ZM149.627 216.952H145.956V229.114H149.627C151.131 229.114 152.316 228.514 153.183 227.312C154.049 226.086 154.483 224.66 154.483 223.033C154.483 221.406 154.049 219.992 153.183 218.791C152.316 217.565 151.131 216.952 149.627 216.952Z" fill="#17181A"/>
<path d="M169.024 222.883C170.019 222.883 170.822 223.296 171.433 224.122C172.071 224.947 172.389 225.986 172.389 227.237C172.389 228.488 171.867 229.114 170.822 229.114C170.21 229.114 169.713 228.926 169.33 228.551C169.662 227.825 169.827 227.087 169.827 226.336C169.827 225.01 169.267 224.347 168.145 224.347C167.202 224.347 166.361 225.123 165.622 226.674C164.908 228.201 164.551 230.428 164.551 233.356V238.348C164.551 238.699 164.729 238.874 165.086 238.874H167.648V239.55H159.466V238.874H161.263C161.62 238.874 161.798 238.699 161.798 238.348V224.535C161.798 224.184 161.62 224.009 161.263 224.009H159.466V223.333H161.339C162.869 223.333 163.939 223.258 164.551 223.108V227.913C164.959 226.186 165.558 224.922 166.348 224.122C167.138 223.296 168.03 222.883 169.024 222.883Z" fill="#17181A"/>
<path d="M181.821 222.883C183.58 222.883 184.97 223.458 185.989 224.61C187.009 225.761 187.518 227.45 187.518 229.677C187.518 230.128 187.493 230.628 187.442 231.179H177.004V231.441C177.004 233.819 177.437 235.696 178.304 237.072C179.196 238.423 180.33 239.099 181.707 239.099C183.109 239.099 184.256 238.749 185.148 238.048C186.04 237.347 186.652 236.346 186.983 235.045L187.71 235.195C187.404 236.722 186.703 237.91 185.607 238.761C184.511 239.587 183.249 240 181.821 240C179.604 240 177.756 239.237 176.277 237.71C174.825 236.184 174.098 234.107 174.098 231.479C174.098 228.826 174.837 226.737 176.316 225.21C177.794 223.659 179.629 222.883 181.821 222.883ZM184.88 228.401C184.88 225.323 183.708 223.784 181.363 223.784C180.19 223.784 179.183 224.409 178.342 225.661C177.526 226.912 177.093 228.501 177.042 230.428H184.727C184.829 229.577 184.88 228.901 184.88 228.401Z" fill="#17181A"/>
<path d="M195.946 229.377L199.922 230.841C200.865 231.191 201.579 231.729 202.063 232.455C202.573 233.156 202.828 233.944 202.828 234.82C202.828 236.171 202.28 237.372 201.184 238.423C200.088 239.474 198.609 240 196.749 240C194.913 240 193.18 239.662 191.549 238.986C191.702 238.386 191.778 237.335 191.778 235.833V234.332H192.466L192.734 236.284C192.963 238.161 194.302 239.099 196.749 239.099C197.845 239.099 198.75 238.774 199.463 238.123C200.203 237.447 200.572 236.684 200.572 235.833C200.572 234.657 199.846 233.806 198.393 233.281L194.416 231.817C193.524 231.491 192.849 230.978 192.39 230.278C191.931 229.577 191.702 228.789 191.702 227.913C191.702 226.587 192.186 225.423 193.155 224.422C194.123 223.396 195.334 222.883 196.787 222.883C198.265 222.883 199.922 223.221 201.757 223.896C201.604 224.497 201.528 225.548 201.528 227.05V228.551H200.84L200.572 226.599C200.368 224.797 199.208 223.896 197.093 223.896C196.15 223.896 195.372 224.184 194.76 224.76C194.149 225.335 193.843 226.011 193.843 226.787C193.843 227.988 194.544 228.851 195.946 229.377Z" fill="#17181A"/>
<path d="M209.807 219.354H210.381V223.333H214.204V224.009H210.381V236.734C210.381 238.086 210.763 238.761 211.528 238.761C211.884 238.761 212.19 238.599 212.445 238.273C212.726 237.948 212.866 237.573 212.866 237.147C212.866 236.722 212.828 236.321 212.751 235.946L213.478 235.833C213.58 236.209 213.631 236.622 213.631 237.072C213.631 237.973 213.35 238.686 212.789 239.212C212.254 239.737 211.54 240 210.648 240C209.756 240 209.03 239.65 208.469 238.949C207.908 238.223 207.628 237.147 207.628 235.721V224.535C207.628 224.184 207.449 224.009 207.092 224.009H205.295V223.333H207.169C207.985 223.333 208.864 222.007 209.807 219.354Z" fill="#17181A"/>
<path d="M218.656 237.71C217.229 236.184 216.515 234.094 216.515 231.441C216.515 228.789 217.229 226.699 218.656 225.173C220.083 223.646 221.944 222.883 224.238 222.883C226.532 222.883 228.393 223.646 229.821 225.173C231.274 226.699 232 228.789 232 231.441C232 234.094 231.274 236.184 229.821 237.71C228.393 239.237 226.532 240 224.238 240C221.944 240 220.083 239.237 218.656 237.71ZM220.797 225.811C219.88 227.187 219.421 229.064 219.421 231.441C219.421 233.819 219.88 235.708 220.797 237.11C221.715 238.486 222.862 239.174 224.238 239.174C225.615 239.174 226.762 238.486 227.679 237.11C228.623 235.708 229.094 233.819 229.094 231.441C229.094 229.064 228.623 227.187 227.679 225.811C226.762 224.409 225.615 223.709 224.238 223.709C222.862 223.709 221.715 224.409 220.797 225.811Z" fill="#17181A"/>
<path d="M125.972 66.7248C118.157 66.7248 111.845 70.1498 107.035 77C102.312 83.8501 99.9499 93.2263 99.9499 105.128C99.9499 117.031 102.355 126.364 107.164 133.128C111.973 139.893 117.985 143.275 125.199 143.275C132.499 143.275 137.566 141.434 140.4 137.752C143.32 133.985 144.78 128.505 144.78 121.312V116.174C144.78 115.147 144.179 114.633 142.977 114.633H134.346V112.321H160.625V114.633H157.147C155.945 114.633 155.344 115.147 155.344 116.174V120.798C155.344 128.419 152.595 134.713 147.099 139.679C141.603 144.56 134.56 147 125.972 147C115.151 147 106.262 143.275 99.3058 135.826C92.4353 128.376 89 118.144 89 105.128C89 92.0275 92.3923 81.7523 99.177 74.3028C106.048 66.7676 114.979 63 125.972 63C131.554 63 137.137 64.4128 142.719 67.2385C144.522 68.1804 145.811 68.6514 146.584 68.6514C147.872 68.6514 148.559 67.7523 148.645 65.9541L148.774 63.7706H151.221V85.9908H148.902C148.13 79.3976 145.639 74.5596 141.431 71.4771C137.308 68.3089 132.156 66.7248 125.972 66.7248Z" fill="black"/>
<path fill-rule="evenodd" clip-rule="evenodd" d="M206.587 124.305C198.209 161.838 164.615 189.898 124.447 189.898C84.2798 189.898 50.6854 161.838 42.3083 124.305H36.0481C44.5296 165.233 80.8849 196 124.447 196C168.01 196 204.365 165.233 212.847 124.305H206.587ZM42.3083 87.6949C50.6854 50.1623 84.2798 22.1017 124.447 22.1017C164.615 22.1017 198.209 50.1623 206.587 87.6949H212.847C204.365 46.7667 168.01 16 124.447 16C80.8849 16 44.5296 46.7667 36.0481 87.6949H42.3083Z" fill="black"/>
<path fill-rule="evenodd" clip-rule="evenodd" d="M194.17 124.305C186.055 155.034 157.995 177.695 124.626 177.695C91.2579 177.695 63.198 155.034 55.0831 124.305H53.5018C61.6542 155.886 90.4071 179.22 124.626 179.22C158.846 179.22 187.598 155.886 195.751 124.305H194.17ZM55.0831 87.6949C63.198 56.9661 91.2579 34.3051 124.626 34.3051C157.995 34.3051 186.055 56.9661 194.17 87.6949H195.751C187.598 56.1145 158.846 32.7797 124.626 32.7797C90.4071 32.7797 61.6542 56.1145 53.5018 87.6949H55.0831Z" fill="black"/>
<path fill-rule="evenodd" clip-rule="evenodd" d="M67.8389 106H25V104.475H67.8389V106Z" fill="black"/>
<path fill-rule="evenodd" clip-rule="evenodd" d="M223.895 106H181.056V104.475H223.895V106Z" fill="black"/>
</svg>
